<?xml version="1.0" standalone="no"?>
<!DOCTYPE svg PUBLIC "-//W3C//DTD SVG 20010904//EN"
 "http://www.w3.org/TR/2001/REC-SVG-20010904/DTD/svg10.dtd">
<svg version="1.0" xmlns="http://www.w3.org/2000/svg"
 width="340.000000pt" height="340.000000pt" viewBox="0 0 340.000000 340.000000"
 preserveAspectRatio="xMidYMid meet">
<metadata>
Created by potrace 1.14, written by Peter Selinger 2001-2017
</metadata>
<g transform="translate(0.000000,340.000000) scale(0.100000,-0.100000)"
fill="#000000" stroke="none">
<path d="M1855 2260 c-44 -10 -84 -16 -88 -13 -7 4 -15 -12 -21 -44 0 -4 12
-9 29 -10 54 -4 55 -7 56 -377 0 -188 0 -391 -1 -453 -1 -64 3 -114 9 -117 19
-12 96 -20 183 -20 77 1 94 4 152 33 174 85 251 300 172 476 -29 63 -67 102
-131 131 -74 34 -127 28 -205 -24 -34 -23 -65 -42 -67 -42 -8 0 7 345 17 408
14 81 18 79 -105 52z m312 -496 c64 -48 93 -120 94 -231 1 -87 -22 -144 -74
-190 -53 -46 -146 -56 -232 -23 l-26 10 3 196 c2 131 6 199 14 205 6 5 35 22
64 38 61 34 107 32 157 -5z"/>
<path d="M1077 2143 c-4 -3 -61 -6 -129 -7 l-122 -2 -7 -26 c-9 -33 -4 -38 36
-38 58 0 59 -4 61 -326 1 -162 -1 -294 -5 -294 -7 1 -106 143 -311 450 l-158
235 -110 2 c-110 2 -110 2 -115 -23 -5 -29 -4 -30 46 -39 22 -4 45 -18 57 -32
22 -28 22 -16 5 -513 -7 -191 -13 -213 -66 -232 -22 -8 -29 -16 -29 -37 l0
-27 138 4 c75 2 140 9 143 14 3 5 6 19 5 31 -1 18 -8 21 -49 23 -27 1 -52 5
-55 9 -6 6 -4 636 2 642 4 4 287 -411 417 -610 89 -136 105 -156 123 -151 12
4 22 7 23 9 2 1 6 105 9 231 3 126 7 283 9 349 2 66 4 148 4 182 1 68 21 99
71 110 20 3 26 11 28 33 2 28 -9 46 -21 33z"/>
<path d="M1331 1870 c-29 -11 -76 -32 -105 -48 -42 -24 -50 -34 -48 -53 6 -38
18 -43 49 -22 71 50 158 61 209 28 27 -18 55 -102 50 -154 l-2 -35 -140 -38
c-169 -48 -197 -68 -197 -145 -1 -107 79 -180 189 -174 11 1 48 24 82 51 34
28 64 50 67 50 3 0 5 -9 5 -20 0 -31 50 -78 90 -85 43 -7 85 17 125 70 35 45
23 65 -23 41 -41 -21 -68 -20 -91 3 -23 23 -22 69 4 316 9 82 -5 137 -44 176
-36 36 -92 59 -141 59 -14 -1 -49 -9 -79 -20z m147 -412 l-3 -73 -50 -33 c-42
-28 -57 -33 -88 -29 -41 6 -66 30 -79 77 -13 44 13 66 114 99 51 16 97 30 101
30 5 1 7 -32 5 -71z"/>
<path d="M2540 1867 c-52 -11 -96 -21 -96 -21 -1 -1 -5 -11 -8 -23 -6 -20 -4
-23 18 -23 14 0 35 -9 46 -20 20 -20 21 -31 18 -233 -3 -198 -2 -214 17 -247
26 -44 71 -70 133 -77 55 -6 85 6 169 69 59 43 73 47 73 18 0 -48 54 -90 116
-90 37 0 104 66 104 101 0 29 0 29 -30 14 -39 -20 -66 -19 -90 5 -18 18 -19
30 -15 181 4 150 8 216 21 312 3 20 3 41 0 46 -3 5 -32 2 -63 -5 -32 -8 -78
-16 -103 -20 -52 -7 -63 -15 -58 -40 2 -13 13 -19 35 -20 63 -2 64 -6 61 -217
l-3 -191 -57 -34 c-89 -53 -173 -42 -200 26 -16 41 -11 308 8 405 11 61 14 96
7 100 -4 2 -51 -5 -103 -16z"/>
</g>
</svg>
